<svg width="255" height="264" viewBox="0 0 255 264" fill="none" xmlns="http://www.w3.org/2000/svg">
<rect y="38" width="190" height="198" rx="22" fill="#2196F3"/>
<rect x="12" y="66" width="165" height="33" rx="5" fill="black"/>
<rect x="27" y="165" width="135" height="33" rx="5" fill="black"/>
<rect x="19" y="116" width="152" height="32" rx="5" fill="black"/>
<ellipse cx="181.5" cy="71" rx="73.5" ry="64" fill="#2196F3"/>
<path d="M219.797 120.012L235.092 157.17L201.962 130.533L219.797 120.012Z" fill="#2196F3"/>
<path d="M93.9069 213.646L113.002 264L70.4505 228.42L93.9069 213.646Z" fill="#2196F3"/>
<path d="M172.918 87.9766C172.996 83.3281 173.523 79.6562 174.5 76.9609C175.477 74.2656 177.469 71.2773 180.477 67.9961L188.152 60.0859C191.434 56.375 193.074 52.3906 193.074 48.1328C193.074 44.0312 192 40.8281 189.852 38.5234C187.703 36.1797 184.578 35.0078 180.477 35.0078C176.492 35.0078 173.289 36.0625 170.867 38.1719C168.445 40.2812 167.234 43.1133 167.234 46.668H156.395C156.473 40.3398 158.719 35.2422 163.133 31.375C167.586 27.4687 173.367 25.5156 180.477 25.5156C187.859 25.5156 193.602 27.5078 197.703 31.4922C201.844 35.4375 203.914 40.8672 203.914 47.7812C203.914 54.6172 200.75 61.3555 194.422 67.9961L188.035 74.3242C185.184 77.4883 183.758 82.0391 183.758 87.9766H172.918ZM172.449 106.551C172.449 104.793 172.977 103.328 174.031 102.156C175.125 100.945 176.727 100.34 178.836 100.34C180.945 100.34 182.547 100.945 183.641 102.156C184.734 103.328 185.281 104.793 185.281 106.551C185.281 108.309 184.734 109.773 183.641 110.945C182.547 112.078 180.945 112.645 178.836 112.645C176.727 112.645 175.125 112.078 174.031 110.945C172.977 109.773 172.449 108.309 172.449 106.551Z" fill="black"/>
</svg>
